HIERARCHY
ROOT pelvis
{
  OFFSET 0 100 0
  CHANNELS 6 Xposition Yposition Zposition Zrotation Xrotation Yrotation
  JOINT pelvis_right_femur
  {
    OFFSET -10.78128 -3.44521 -0.5502486
    CHANNELS 3 Zrotation Xrotation Yrotation
    JOINT right_femur_tibia
    {
      OFFSET -0.8047443 -44.0398 -0.1307829
      CHANNELS 3 Zrotation Xrotation Yrotation
      JOINT right_tibia_foot
      {
        OFFSET 3.006224 -47.83518 -5
        CHANNELS 3 Zrotation Xrotation Yrotation
        End Site
        {
          OFFSET 0 -5 15
        }
      }
    }
  }
  JOINT pelvis_left_femur
  {
    OFFSET 10.78128 -3.44521 -0.5502486
    CHANNELS 3 Zrotation Xrotation Yrotation
    JOINT left_femur_tibia
    {
      OFFSET 0.8047443 -44.0398 -0.1307829
      CHANNELS 3 Zrotation Xrotation Yrotation
      JOINT left_tibia_foot
      {
        OFFSET -4.370144 -48.10324 -4.275266
        CHANNELS 3 Zrotation Xrotation Yrotation
        End Site
        {
          OFFSET 0 -5 15
        }
      }
    }
  }
  JOINT pelvis_spine1
  {
    OFFSET 0 6.468898 -3.129235
    CHANNELS 3 Zrotation Xrotation Yrotation
    JOINT spine1
    {
      OFFSET 0 23.15396 4.99043
      CHANNELS 3 Zrotation Xrotation Yrotation
      JOINT spine2
      {
        OFFSET 0 20.79997 -5.064912
        CHANNELS 3 Zrotation Xrotation Yrotation
        JOINT neck
        {
          OFFSET 0 14.38658 9.616178
          CHANNELS 3 Zrotation Xrotation Yrotation
          End Site
          {
            OFFSET 0 20 0
          }
        }
      }
      JOINT right_manubrium
      {
        OFFSET -5.722621 16.35077 3.967754
        CHANNELS 3 Zrotation Xrotation Yrotation
        JOINT right_clavicle
        {
          OFFSET -13.16364 1.694482 -4.693211
          CHANNELS 3 Zrotation Xrotation Yrotation
          JOINT right_humerus
          {
            OFFSET -28.5034 -0.3100689 -2.792744
            CHANNELS 3 Zrotation Xrotation Yrotation
            JOINT right_radius
            {
              OFFSET -25.15693 0.02248979 -1.271978
              CHANNELS 3 Zrotation Xrotation Yrotation
              End Site
              {
                OFFSET -15 0 0
              }
            }
          }
        }
      }
      JOINT left_manubrium
      {
        OFFSET 5.722621 16.35077 3.967754
        CHANNELS 3 Zrotation Xrotation Yrotation
        JOINT left_clavicle
        {
          OFFSET 13.16364 1.694482 -4.693211
          CHANNELS 3 Zrotation Xrotation Yrotation
          JOINT left_humerus
          {
            OFFSET 29.39168 -1.063119 -2.237045
            CHANNELS 3 Zrotation Xrotation Yrotation
            JOINT left_radius
            {
              OFFSET 24.59957 -0.9528479 0.9047498
              CHANNELS 3 Zrotation Xrotation Yrotation
              End Site
              {
                OFFSET 15 -0 -0
              }
            }
          }
        }
      }
    }
  }
}
MOTION
Frames: 15
Frame Time: 0.0416666666667
0 103.5113 0 -0.4753547 -0.1108224 0.09664066 4.439991 -14.92122 8.60712 -0 35.49998 -0 -7.205651 -14.88955 -3.158602 -5.351263 6.486751 -19.65342 -0 5.096879 -0 6.065622 -17.42218 24.91807 -2.074469 -5.425545 5.35269 2.101997 10.66652 -8.464103 1.580395 21.41957 5.662685 2.442953 -24.84574 8.954906 6.071266 -21.19242 11.76953 84.80616 31.30419 -18.4866 -0 0 19.05091 -10.23765 10.40189 3.527099 8.345446 -22.24397 0.5262764 -95.10176 20.79916 22.51243 0 0 -8.289478 14.85936 20.23581 -4.419914
0.2976017 103.2709 2.128608 -0.7027582 0.3044154 0.2360532 5.101634 -17.42866 8.670466 -0 34.08737 -0 -6.929182 -13.92452 -3.059178 -5.303261 7.513109 -19.76022 -0 5.289521 -0 5.736568 -18.27255 24.75971 -2.077405 -4.843735 5.065296 2.335763 10.40655 -8.56052 1.557058 21.17791 5.978224 2.653843 -25.25438 9.184233 5.944595 -20.8722 11.6931 85.03157 31.94321 -18.84834 -0 0 18.62139 -9.759041 10.04049 3.416113 8.350103 -22.03041 0.5160086 -94.79978 21.40232 22.14871 0 0 -9.58314 14.21317 19.55353 -3.649252
0.5670614 102.9523 4.595644 -1.34866 1.027737 0.4745868 6.415813 -21.48667 8.476045 -0 30.72389 -0 -6.695072 -11.75529 -2.865548 -4.869883 8.975376 -19.3799 -0 5.864158 -0 3.651799 -20.16811 23.41095 -1.811148 -3.818088 4.476835 2.753747 9.910145 -8.799487 1.493746 20.65316 6.439488 2.971124 -26.01317 9.463629 5.560245 -20.3766 11.56508 85.40536 32.21225 -19.4695 -0 0 18.1953 -9.473169 9.599916 3.32885 8.529011 -21.81265 0.6564669 -94.63064 22.31108 21.87349 0 0 -10.90872 12.64592 18.76621 -2.140955
0.8186574 102.5849 7.14875 -1.566013 1.307475 0.758889 6.912112 -23.12059 8.560377 -0 29.88578 -0 -6.661487 -11.03851 -3.027275 -4.71785 9.987261 -19.45908 -0 5.763896 -0 2.211324 -21.27508 22.51639 -1.738876 -3.337386 4.134405 2.898366 9.441561 -8.881105 1.45607 20.50939 6.607768 3.077426 -26.23977 9.519075 5.431279 -20.07705 11.40131 85.62069 32.52202 -19.81113 -0 0 18.04308 -9.10393 9.240441 3.309621 8.386716 -21.49304 0.661341 -94.78865 23.65894 22.13309 0 0 -11.66711 10.51448 18.63851 0.2760357
1.070112 102.2049 9.838363 -1.756592 1.660175 1.072016 7.340155 -24.65952 8.509292 -0 28.66238 -0 -6.582822 -10.25453 -2.938455 -4.611003 10.56188 -19.32318 -0 6.248801 -0 1.637632 -21.70007 21.87438 -1.688007 -2.976323 3.91369 3.073131 9.247131 -8.942223 1.413316 20.33173 6.792424 3.215917 -26.50816 9.583904 5.419088 -19.80026 11.38946 85.72749 32.84618 -20.07433 -0 0 17.68433 -8.955386 9.158827 3.416177 8.313786 -21.3636 0.587748 -94.65151 24.07885 21.99821 0 0 -12.41044 9.803386 18.18565 1.09458
1.3276 101.8164 12.62699 -1.869782 1.972104 1.400661 7.641873 -25.92637 8.506905 -0 27.77405 -0 -6.495835 -9.674291 -2.87095 -4.575331 11.07081 -19.26212 -0 6.641238 -0 1.366883 -21.95298 21.40625 -1.694211 -2.697934 3.74799 3.218916 9.090647 -8.983602 1.373366 20.1979 6.949476 3.33561 -26.70696 9.628047 5.471298 -19.55089 11.38964 85.80408 33.26385 -20.29971 -0 0 17.31806 -8.775828 9.108025 3.540363 8.190426 -21.23885 0.4766369 -94.47523 24.47056 21.85298 0 0 -13.19924 9.18977 17.74714 1.864436
1.597522 101.4227 15.53741 -1.995385 2.295122 1.742136 7.937533 -27.13381 8.463844 -0 26.7417 -0 -6.423659 -9.054363 -2.739392 -4.534607 11.45045 -19.10432 -0 7.204199 -0 1.230051 -22.06191 20.96068 -1.6845 -2.450278 3.616872 3.367235 9.004739 -9.029587 1.3315 20.04691 7.102893 3.455215 -26.92101 9.672892 5.523659 -19.32009 11.42139 85.87866 33.64014 -20.51362 -0 0 16.91918 -8.670551 9.122991 3.675675 8.104501 -21.18318 0.3703084 -94.21991 24.58703 21.60958 0 0 -13.94176 8.969019 17.26264 2.166634
1.883171 101.0234 18.57178 -2.115082 2.603276 2.092386 8.204068 -28.24361 8.409958 -0 25.73286 -0 -6.37055 -8.460135 -2.598732 -4.499859 11.783 -18.92126 -0 7.806283 -0 1.135516 -22.11167 20.52487 -1.673185 -2.227195 3.503404 3.506353 8.939689 -9.073888 1.289374 19.90293 7.245405 3.566283 -27.12167 9.710748 5.574735 -19.10075 11.45819 85.95991 33.99632 -20.72184 -0 0 16.51381 -8.587304 9.156352 3.81179 8.02129 -21.1509 0.2636398 -93.94242 24.63155 21.345 0 0 -14.66198 8.850158 16.78824 2.35094
2.187386 100.6192 21.74964 -2.2538 2.901754 2.450442 8.470153 -29.28705 8.316435 -0 24.6312 -0 -6.356405 -7.832675 -2.427618 -4.448157 12.05225 -18.66268 -0 8.549501 -0 1.015592 -22.10039 20.04514 -1.63506 -2.017057 3.400262 3.641131 8.901869 -9.121732 1.24534 19.75553 7.381244 3.671461 -27.3279 9.745617 5.599986 -18.88804 11.50227 86.06456 34.28234 -20.93579 -0 0 16.08907 -8.55561 9.213207 3.942108 7.963173 -21.16028 0.1679226 -93.63759 24.54432 21.03815 0 0 -15.32441 8.904469 16.31776 2.312
2.511734 100.2113 25.08757 -2.409292 3.178475 2.814528 8.729636 -30.23715 8.183914 -0 23.47756 -0 -6.391501 -7.188937 -2.240508 -4.377456 12.27615 -18.33994 -0 9.433189 -0 0.8229717 -22.04191 19.50273 -1.568104 -1.819053 3.300826 3.767073 8.877323 -9.171188 1.199255 19.61384 7.506911 3.76715 -27.53067 9.77324 5.594068 -18.67793 11.5458 86.19961 34.48992 -21.1598 -0 0 15.6483 -8.56733 9.281058 4.062382 7.92114 -21.20047 0.08196701 -93.32614 24.38067 20.71226 0 0 -15.92141 9.050115 15.87118 2.144537
2.857098 99.80365 28.60911 -2.589459 3.424184 3.183012 8.987493 -31.06625 7.998158 -0 22.24901 -0 -6.495066 -6.520615 -2.033278 -4.27708 12.4444 -17.93217 -0 10.53398 -0 0.5129841 -21.91968 18.86933 -1.458272 -1.632975 3.202315 3.881778 8.867161 -9.223058 1.149906 19.48036 7.620532 3.851115 -27.73101 9.791628 5.542079 -18.46817 11.58715 86.37958 34.58963 -21.40129 -0 0 15.18348 -8.634445 9.358616 4.16597 7.899776 -21.27785 0.009152924 -93.01338 24.12873 20.36688 0 0 -16.4279 9.299317 15.45557 1.8251
3.223546 99.40357 32.33945 -2.793659 3.623525 3.552733 9.23899 -31.7198 7.753926 -0 20.9666 -0 -6.682902 -5.84377 -1.811799 -4.142214 12.54803 -17.43447 -0 11.91441 -0 0.05153013 -21.71194 18.13027 -1.297621 -1.46264 3.104364 3.979828 8.869073 -9.275897 1.09647 19.36276 7.717235 3.918826 -27.92187 9.795799 5.434571 -18.25853 11.62289 86.61634 34.56491 -21.6642 -0 0 14.69216 -8.759274 9.44114 4.247473 7.894062 -21.39038 -0.05078272 -92.71139 23.80408 20.01571 0 0 -16.8241 9.627282 15.08272 1.38027
3.610531 99.02391 36.30737 -3.020586 3.755988 3.918306 9.479615 -32.11805 7.443694 -0 19.6444 -0 -6.973727 -5.177208 -1.57901 -3.967185 12.55946 -16.83435 -0 13.67762 -0 -0.5881801 -21.37534 17.27702 -1.075066 -1.313872 3.011286 4.054216 8.887171 -9.327655 1.037962 19.26877 7.790746 3.964485 -28.09619 9.780268 5.257614 -18.05282 11.65129 86.92641 34.39407 -21.9511 -0 0 14.17065 -8.949108 9.525976 4.300647 7.899722 -21.5391 -0.09787332 -92.42913 23.40377 19.67133 0 0 -17.08383 10.03415 14.75931 0.8070483
4.017094 98.68441 40.54228 -3.261747 3.793778 4.270615 9.700233 -32.14675 7.06639 -0 18.31625 -0 -7.381448 -4.55622 -1.343621 -3.750214 12.43263 -16.12581 -0 15.93966 -0 -1.415565 -20.85135 16.32027 -0.7829436 -1.194367 2.933797 4.095185 8.928368 -9.373599 0.9740754 19.20812 7.831817 3.980028 -28.24226 9.737735 4.997937 -17.86159 11.67126 87.32539 34.06249 -22.25763 -0 0 13.62309 -9.208709 9.609389 4.321923 7.906378 -21.71954 -0.1343497 -92.17881 22.92966 19.359 0 0 -17.18062 10.50922 14.48821 0.1195493
4.442344 98.41269 45.07112 -3.500289 3.699943 4.595377 9.888576 -31.64907 6.627136 -0 17.02272 -0 -7.911763 -4.029309 -1.118895 -3.493308 12.08606 -15.30516 -0 18.83537 -0 -2.41372 -20.06389 15.29816 -0.4174125 -1.11161 2.892938 4.089931 9.006663 -9.405291 0.9055708 19.19059 7.827879 3.954846 -28.34494 9.659723 4.640063 -17.70763 11.68401 87.82768 33.56093 -22.56787 -0 0 13.0667 -9.545086 9.687381 4.313166 7.898747 -21.9222 -0.1644323 -91.97425 22.37585 19.1192 0 0 -17.0862 11.04209 14.2623 -0.6651459
